<svg xmlns="http://www.w3.org/2000/svg" xmlns:xlink="http://www.w3.org/1999/xlink" width="346" zoomAndPan="magnify" viewBox="0 0 259.5 138.750001" height="185" preserveAspectRatio="xMidYMid meet" version="1.0"><defs><g/><clipPath id="074cb1624a"><path d="M 0 0.0078125 L 259 0.0078125 L 259 138.492188 L 0 138.492188 Z M 0 0.0078125 " clip-rule="nonzero"/></clipPath></defs><g clip-path="url(#074cb1624a)"><path fill="#ffffff" d="M 0 0.0078125 L 259 0.0078125 L 259 138.492188 L 0 138.492188 Z M 0 0.0078125 " fill-opacity="1" fill-rule="nonzero"/></g><path fill="#00a19a" d="M 128.496094 37.816406 C 120.847656 45.480469 120.847656 57.90625 128.496094 65.566406 C 136.148438 73.230469 148.554688 73.230469 156.207031 65.566406 L 183.917969 37.816406 C 191.566406 30.15625 191.566406 17.730469 183.917969 10.070312 C 176.265625 2.40625 163.859375 2.40625 156.207031 10.070312 Z M 128.496094 37.816406 " fill-opacity="1" fill-rule="nonzero"/><path fill="#304499" d="M 128.496094 37.816406 C 136.148438 30.15625 136.148438 17.730469 128.496094 10.070312 C 120.847656 2.40625 108.4375 2.40625 100.789062 10.070312 L 73.078125 37.816406 C 65.429688 45.480469 65.429688 57.90625 73.078125 65.566406 C 80.730469 73.230469 93.136719 73.230469 100.789062 65.566406 Z M 128.496094 37.816406 " fill-opacity="1" fill-rule="nonzero"/><path fill="#ffb300" d="M 128.496094 65.566406 C 136.148438 73.230469 148.554688 73.230469 156.207031 65.566406 C 163.859375 57.90625 163.859375 45.480469 156.207031 37.816406 L 128.496094 10.070312 C 120.847656 2.40625 108.4375 2.40625 100.789062 10.070312 C 93.136719 17.730469 93.136719 30.15625 100.789062 37.816406 Z M 128.496094 65.566406 " fill-opacity="1" fill-rule="nonzero"/><path fill="#efefef" d="M 153.703125 64.90625 C 153.359375 65.203125 153.011719 65.488281 152.648438 65.753906 C 153.011719 65.488281 153.359375 65.203125 153.703125 64.90625 Z M 153.703125 64.90625 " fill-opacity="1" fill-rule="nonzero"/><path fill="#efefef" d="M 126.957031 36.269531 L 126.953125 36.269531 L 126.949219 36.273438 Z M 126.957031 36.269531 " fill-opacity="1" fill-rule="nonzero"/><path fill="#efefef" d="M 151.9375 66.25 C 151.453125 66.570312 150.960938 66.863281 150.453125 67.128906 C 150.960938 66.863281 151.453125 66.570312 151.9375 66.25 Z M 151.9375 66.25 " fill-opacity="1" fill-rule="nonzero"/><path fill="#efefef" d="M 150.453125 67.128906 C 150.058594 67.335938 149.652344 67.523438 149.246094 67.695312 C 149.652344 67.523438 150.058594 67.335938 150.453125 67.128906 Z M 150.453125 67.128906 " fill-opacity="1" fill-rule="nonzero"/><path fill="#efefef" d="M 148.609375 67.957031 C 147.703125 68.304688 146.773438 68.578125 145.828125 68.769531 C 146.773438 68.578125 147.703125 68.304688 148.609375 67.957031 Z M 148.609375 67.957031 " fill-opacity="1" fill-rule="nonzero"/><path fill="#efefef" d="M 130.039062 39.371094 L 130.042969 39.367188 C 130.042969 39.367188 130.046875 39.363281 130.046875 39.363281 L 130.042969 39.367188 C 130.042969 39.367188 130.042969 39.367188 130.039062 39.371094 Z M 130.039062 39.371094 " fill-opacity="1" fill-rule="nonzero"/><path fill="#efefef" d="M 149.246094 67.699219 C 149.035156 67.789062 148.824219 67.875 148.609375 67.957031 C 148.824219 67.875 149.035156 67.789062 149.246094 67.699219 Z M 149.246094 67.699219 " fill-opacity="1" fill-rule="nonzero"/><path fill="#efefef" d="M 154.664062 64.023438 C 154.355469 64.332031 154.03125 64.625 153.707031 64.90625 C 154.03125 64.625 154.351562 64.332031 154.664062 64.023438 Z M 154.664062 64.023438 " fill-opacity="1" fill-rule="nonzero"/><path fill="#efefef" d="M 145.828125 68.769531 C 145.730469 68.789062 145.636719 68.808594 145.542969 68.828125 C 145.636719 68.808594 145.734375 68.789062 145.828125 68.769531 Z M 145.828125 68.769531 " fill-opacity="1" fill-rule="nonzero"/><path fill="#efefef" d="M 185.464844 8.523438 C 176.972656 0.0195312 163.15625 0.0195312 154.664062 8.523438 L 142.355469 20.851562 L 130.042969 8.523438 C 121.550781 0.0195312 107.734375 0.0195312 99.242188 8.523438 L 71.535156 36.269531 C 63.042969 44.773438 63.042969 58.609375 71.535156 67.113281 C 80.027344 75.617188 93.839844 75.617188 102.332031 67.113281 L 114.644531 54.785156 L 126.957031 67.113281 C 135.445312 75.617188 149.261719 75.617188 157.753906 67.113281 L 185.464844 39.363281 C 193.957031 30.863281 193.957031 17.027344 185.464844 8.523438 Z M 99.242188 64.023438 C 92.457031 70.820312 81.410156 70.820312 74.625 64.023438 C 67.835938 57.222656 67.835938 46.164062 74.625 39.367188 L 93.09375 20.871094 C 92.167969 27.429688 94.21875 34.335938 99.242188 39.367188 L 111.554688 51.695312 Z M 154.664062 64.023438 C 154.355469 64.332031 154.03125 64.625 153.707031 64.90625 C 153.363281 65.203125 153.015625 65.488281 152.652344 65.757812 C 152.417969 65.929688 152.179688 66.097656 151.9375 66.253906 C 151.453125 66.570312 150.960938 66.867188 150.453125 67.128906 C 150.058594 67.339844 149.652344 67.527344 149.246094 67.699219 C 149.035156 67.789062 148.824219 67.875 148.609375 67.957031 C 147.703125 68.304688 146.773438 68.578125 145.828125 68.769531 C 145.730469 68.789062 145.636719 68.808594 145.542969 68.828125 C 140.089844 69.835938 134.25 68.234375 130.042969 64.023438 L 120.800781 54.769531 L 117.730469 51.695312 L 114.640625 48.601562 L 102.332031 36.269531 C 95.539062 29.472656 95.539062 18.414062 102.332031 11.617188 C 109.121094 4.816406 120.164062 4.816406 126.949219 11.617188 L 136.191406 20.871094 L 139.261719 23.945312 L 142.351562 27.039062 L 154.664062 39.367188 C 161.453125 46.164062 161.453125 57.222656 154.664062 64.023438 Z M 182.375 36.269531 L 163.90625 54.765625 C 164.832031 48.207031 162.78125 41.304688 157.753906 36.269531 L 145.441406 23.945312 L 157.753906 11.617188 C 164.542969 4.820312 175.589844 4.820312 182.375 11.617188 C 189.160156 18.414062 189.160156 29.476562 182.375 36.269531 Z M 182.375 36.269531 " fill-opacity="1" fill-rule="nonzero"/><g fill="#000000" fill-opacity="0.6784"><g transform="translate(49.474917, 109.095785)"><g><path d="M 9.234375 0.53125 C 15.59375 0.53125 20.21875 -2.734375 20.21875 -8.734375 C 20.21875 -13.109375 16.3125 -14.1875 13.046875 -15.046875 C 10.703125 -15.65625 8.65625 -16.234375 8.65625 -17.859375 C 8.65625 -19.9375 10.59375 -21.046875 12.9375 -21.046875 C 15.09375 -21.046875 16.375 -19.96875 16.375 -18.25 C 16.375 -18.03125 16.34375 -17.78125 16.3125 -17.5625 L 21.40625 -17.5625 C 21.515625 -18.171875 21.59375 -18.75 21.59375 -19.296875 C 21.59375 -23.34375 18.640625 -25.640625 13.90625 -25.640625 C 7.796875 -25.640625 3.40625 -22.734375 3.40625 -16.984375 C 3.40625 -12.859375 7.15625 -11.859375 10.34375 -10.984375 C 12.78125 -10.34375 14.90625 -9.734375 14.90625 -7.96875 C 14.90625 -5.5625 12.578125 -4.203125 10.0625 -4.203125 C 7.71875 -4.203125 6.28125 -5.359375 6.28125 -7.359375 C 6.28125 -7.578125 6.28125 -7.828125 6.359375 -8.078125 L 1.109375 -8.078125 C 0.96875 -7.4375 0.9375 -6.828125 0.9375 -6.25 C 0.9375 -2.015625 4.203125 0.53125 9.234375 0.53125 Z M 9.234375 0.53125 "/></g></g></g><g fill="#000000" fill-opacity="0.6784"><g transform="translate(71.529224, 109.095785)"><g><path d="M 0.96875 0 L 6.171875 0 L 11.203125 -25.140625 L 6 -25.140625 Z M 0.96875 0 "/></g></g></g><g fill="#000000" fill-opacity="0.6784"><g transform="translate(82.5923, 109.095785)"><g><path d="M 21.953125 -25.140625 L 18.75 -9.09375 L 10.671875 -25.140625 L 6 -25.140625 L 0.96875 0 L 6.171875 0 L 9.453125 -16.453125 L 17.8125 0 L 22.125 0 L 27.15625 -25.140625 Z M 21.953125 -25.140625 "/></g></g></g><g fill="#304499" fill-opacity="1"><g transform="translate(47.886997, 107.507863)"><g><path d="M 9.234375 0.53125 C 15.59375 0.53125 20.21875 -2.734375 20.21875 -8.734375 C 20.21875 -13.109375 16.3125 -14.1875 13.046875 -15.046875 C 10.703125 -15.65625 8.65625 -16.234375 8.65625 -17.859375 C 8.65625 -19.9375 10.59375 -21.046875 12.9375 -21.046875 C 15.09375 -21.046875 16.375 -19.96875 16.375 -18.25 C 16.375 -18.03125 16.34375 -17.78125 16.3125 -17.5625 L 21.40625 -17.5625 C 21.515625 -18.171875 21.59375 -18.75 21.59375 -19.296875 C 21.59375 -23.34375 18.640625 -25.640625 13.90625 -25.640625 C 7.796875 -25.640625 3.40625 -22.734375 3.40625 -16.984375 C 3.40625 -12.859375 7.15625 -11.859375 10.34375 -10.984375 C 12.78125 -10.34375 14.90625 -9.734375 14.90625 -7.96875 C 14.90625 -5.5625 12.578125 -4.203125 10.0625 -4.203125 C 7.71875 -4.203125 6.28125 -5.359375 6.28125 -7.359375 C 6.28125 -7.578125 6.28125 -7.828125 6.359375 -8.078125 L 1.109375 -8.078125 C 0.96875 -7.4375 0.9375 -6.828125 0.9375 -6.25 C 0.9375 -2.015625 4.203125 0.53125 9.234375 0.53125 Z M 9.234375 0.53125 "/></g></g></g><g fill="#304499" fill-opacity="1"><g transform="translate(69.941304, 107.507863)"><g><path d="M 0.96875 0 L 6.171875 0 L 11.203125 -25.140625 L 6 -25.140625 Z M 0.96875 0 "/></g></g></g><g fill="#304499" fill-opacity="1"><g transform="translate(81.00438, 107.507863)"><g><path d="M 21.953125 -25.140625 L 18.75 -9.09375 L 10.671875 -25.140625 L 6 -25.140625 L 0.96875 0 L 6.171875 0 L 9.453125 -16.453125 L 17.8125 0 L 22.125 0 L 27.15625 -25.140625 Z M 21.953125 -25.140625 "/></g></g></g><g fill="#000000" fill-opacity="0.6784"><g transform="translate(109.605151, 109.095785)"><g><path d="M 12.71875 0.53125 C 19.03125 0.53125 24.359375 -2.90625 26.6875 -9.703125 L 21.453125 -9.703125 C 19.9375 -6.4375 16.921875 -4.421875 13.40625 -4.421875 C 9.515625 -4.421875 7.078125 -6.859375 7.078125 -10.59375 C 7.078125 -15.84375 11.390625 -20.6875 16.625 -20.6875 C 19.9375 -20.6875 22.09375 -18.828125 22.59375 -15.765625 L 27.765625 -15.765625 C 27.546875 -21.515625 23.203125 -25.640625 17.25 -25.640625 C 8.6875 -25.640625 1.828125 -18.828125 1.828125 -10.234375 C 1.828125 -4.0625 6.21875 0.53125 12.71875 0.53125 Z M 12.71875 0.53125 "/></g></g></g><g fill="#000000" fill-opacity="0.6784"><g transform="translate(137.334668, 109.095785)"><g><path d="M 20.078125 -20.515625 L 21.015625 -25.140625 L 6 -25.140625 L 0.96875 0 L 16.375 0 L 17.3125 -4.640625 L 7.078125 -4.640625 L 8.265625 -10.453125 L 17.171875 -10.453125 L 18.0625 -14.9375 L 9.15625 -14.9375 L 10.28125 -20.515625 Z M 20.078125 -20.515625 "/></g></g></g><g fill="#000000" fill-opacity="0.6784"><g transform="translate(157.305667, 109.095785)"><g><path d="M 23.28125 -18.171875 C 23.28125 -22.203125 20.296875 -25.140625 15.875 -25.140625 L 6 -25.140625 L 0.96875 0 L 6.171875 0 L 7.90625 -8.6875 L 11.890625 -8.6875 L 15.15625 0 L 20.6875 0 L 17.0625 -9.453125 C 20.6875 -10.890625 23.28125 -14.1875 23.28125 -18.171875 Z M 10.28125 -20.46875 L 14.875 -20.46875 C 16.921875 -20.46875 18 -19.4375 18.03125 -17.8125 C 18.03125 -15.453125 16.125 -13.359375 13.359375 -13.359375 L 8.84375 -13.359375 Z M 10.28125 -20.46875 "/></g></g></g><g fill="#ffb300" fill-opacity="1"><g transform="translate(108.017231, 107.507863)"><g><path d="M 12.71875 0.53125 C 19.03125 0.53125 24.359375 -2.90625 26.6875 -9.703125 L 21.453125 -9.703125 C 19.9375 -6.4375 16.921875 -4.421875 13.40625 -4.421875 C 9.515625 -4.421875 7.078125 -6.859375 7.078125 -10.59375 C 7.078125 -15.84375 11.390625 -20.6875 16.625 -20.6875 C 19.9375 -20.6875 22.09375 -18.828125 22.59375 -15.765625 L 27.765625 -15.765625 C 27.546875 -21.515625 23.203125 -25.640625 17.25 -25.640625 C 8.6875 -25.640625 1.828125 -18.828125 1.828125 -10.234375 C 1.828125 -4.0625 6.21875 0.53125 12.71875 0.53125 Z M 12.71875 0.53125 "/></g></g></g><g fill="#ffb300" fill-opacity="1"><g transform="translate(135.746748, 107.507863)"><g><path d="M 20.078125 -20.515625 L 21.015625 -25.140625 L 6 -25.140625 L 0.96875 0 L 16.375 0 L 17.3125 -4.640625 L 7.078125 -4.640625 L 8.265625 -10.453125 L 17.171875 -10.453125 L 18.0625 -14.9375 L 9.15625 -14.9375 L 10.28125 -20.515625 Z M 20.078125 -20.515625 "/></g></g></g><g fill="#ffb300" fill-opacity="1"><g transform="translate(155.717747, 107.507863)"><g><path d="M 23.28125 -18.171875 C 23.28125 -22.203125 20.296875 -25.140625 15.875 -25.140625 L 6 -25.140625 L 0.96875 0 L 6.171875 0 L 7.90625 -8.6875 L 11.890625 -8.6875 L 15.15625 0 L 20.6875 0 L 17.0625 -9.453125 C 20.6875 -10.890625 23.28125 -14.1875 23.28125 -18.171875 Z M 10.28125 -20.46875 L 14.875 -20.46875 C 16.921875 -20.46875 18 -19.4375 18.03125 -17.8125 C 18.03125 -15.453125 16.125 -13.359375 13.359375 -13.359375 L 8.84375 -13.359375 Z M 10.28125 -20.46875 "/></g></g></g><g fill="#000000" fill-opacity="0.6784"><g transform="translate(180.905272, 109.095785)"><g><path d="M 13.296875 0.53125 C 21.984375 0.53125 28.875 -5.96875 28.875 -14.578125 C 28.875 -20.9375 24.28125 -25.640625 17.5 -25.640625 C 8.84375 -25.640625 1.875 -19.140625 1.875 -10.5625 C 1.875 -4.203125 6.5 0.53125 13.296875 0.53125 Z M 13.96875 -4.34375 C 9.84375 -4.34375 7.109375 -7.046875 7.109375 -10.953125 C 7.109375 -15.984375 11.25 -20.765625 16.8125 -20.765625 C 20.90625 -20.765625 23.671875 -18.140625 23.671875 -14.1875 C 23.671875 -9.125 19.609375 -4.34375 13.96875 -4.34375 Z M 13.96875 -4.34375 "/></g></g></g><g fill="#00a19a" fill-opacity="1"><g transform="translate(179.317352, 107.507863)"><g><path d="M 13.296875 0.53125 C 21.984375 0.53125 28.875 -5.96875 28.875 -14.578125 C 28.875 -20.9375 24.28125 -25.640625 17.5 -25.640625 C 8.84375 -25.640625 1.875 -19.140625 1.875 -10.5625 C 1.875 -4.203125 6.5 0.53125 13.296875 0.53125 Z M 13.96875 -4.34375 C 9.84375 -4.34375 7.109375 -7.046875 7.109375 -10.953125 C 7.109375 -15.984375 11.25 -20.765625 16.8125 -20.765625 C 20.90625 -20.765625 23.671875 -18.140625 23.671875 -14.1875 C 23.671875 -9.125 19.609375 -4.34375 13.96875 -4.34375 Z M 13.96875 -4.34375 "/></g></g></g></svg>